<svg width="13" height="13" viewBox="0 0 13 13" fill="none" xmlns="http://www.w3.org/2000/svg">
<path d="M6.81709 8.2018C7.23598 8.49687 7.67514 8.74499 8.12781 8.93276C8.40888 9.0347 8.84994 8.74605 9.17425 8.53381C9.25531 8.48076 9.32908 8.43248 9.39123 8.39628L9.41163 8.38482C9.71711 8.21328 10.0563 8.02279 10.4925 8.11462C10.8844 8.1951 12.2289 9.25465 12.6005 9.63019C12.8437 9.87161 12.9788 10.1264 12.9991 10.388C13.0396 11.3604 11.7357 12.4534 11.4249 12.6412C10.7628 13.124 9.87768 13.1173 8.81019 12.6345C7.66838 12.1718 6.30362 11.1994 4.98614 10.0191C4.51453 9.59664 3.60885 8.7071 3.35111 8.41C2.02013 6.9682 0.898584 5.4191 0.371595 4.16507C0.121613 3.63529 0 3.14575 0 2.70986C0 2.28067 0.121613 1.89842 0.358083 1.56983C0.499964 1.3217 1.64177 -0.0329188 2.64846 0.000611917C2.89844 0.0274355 3.15518 0.154851 3.40516 0.396269C3.78351 0.765102 4.87127 2.09961 4.95235 2.49526C5.04485 2.92154 4.85304 3.25803 4.68024 3.56118L4.66858 3.58165C4.62964 3.64893 4.57684 3.72875 4.51911 3.81602C4.30645 4.1375 4.02697 4.55998 4.12741 4.82897C4.37806 5.44593 4.73615 6.04947 5.16787 6.60608C5.647 7.17894 6.3982 7.90673 6.81709 8.2018Z" fill="#06965C"/>
</svg>
