<svg width="18" height="18" viewBox="0 0 18 18" fill="none" xmlns="http://www.w3.org/2000/svg">
<path fill-rule="evenodd" clip-rule="evenodd" d="M-3.93402e-07 9C-6.94355e-08 1.5885 1.5885 -7.17369e-07 9 -3.93402e-07C16.4115 -6.94355e-08 18 1.5885 18 9C18 16.4115 16.4115 18 9 18C1.5885 18 -7.17369e-07 16.4115 -3.93402e-07 9ZM8.03033 12.5303L11.0303 9.53033C11.3232 9.23744 11.3232 8.76256 11.0303 8.46967L8.03033 5.46967C7.73744 5.17678 7.26256 5.17678 6.96967 5.46967C6.67678 5.76256 6.67678 6.23744 6.96967 6.53033L9.43934 9L6.96967 11.4697C6.67678 11.7626 6.67678 12.2374 6.96967 12.5303C7.26256 12.8232 7.73744 12.8232 8.03033 12.5303Z" fill="#D1D1D1"/>
</svg>
