<svg width="18" height="18" viewBox="0 0 18 18" fill="none" xmlns="http://www.w3.org/2000/svg">
<path fill-rule="evenodd" clip-rule="evenodd" d="M18 9C18 1.5885 16.4115 -7.17369e-07 9 -3.93402e-07C1.5885 -6.94355e-08 6.94355e-08 1.5885 3.93402e-07 9C7.17369e-07 16.4115 1.5885 18 9 18C16.4115 18 18 16.4115 18 9ZM9.96967 12.5303L6.96967 9.53033C6.67678 9.23744 6.67678 8.76256 6.96967 8.46967L9.96967 5.46967C10.2626 5.17678 10.7374 5.17678 11.0303 5.46967C11.3232 5.76256 11.3232 6.23744 11.0303 6.53033L8.56066 9L11.0303 11.4697C11.3232 11.7626 11.3232 12.2374 11.0303 12.5303C10.7374 12.8232 10.2626 12.8232 9.96967 12.5303Z" fill="#D1D1D1"/>
</svg>
